<svg width="19" height="20" viewBox="0 0 19 20" fill="none" xmlns="http://www.w3.org/2000/svg">
<path d="M-0.000946482 9.99411C-0.000946241 15.5191 4.36073 19.9941 9.74013 19.9941C14.0448 19.9941 17.6952 17.1291 18.9822 13.1566C19.0739 12.6566 18.7724 12.4733 18.5139 12.4733C18.2826 12.4733 17.6696 12.4816 16.8576 12.4858C17.4449 15.2674 15.5507 15.8541 15.5507 15.8541C14.4264 16.3091 14.1258 16.9666 14.1258 16.9666C13.5219 17.8724 13.5343 16.8966 13.5343 16.8966C13.602 15.8924 14.538 15.3649 14.538 15.3649C16.0274 14.4733 15.597 13.0241 15.3483 12.4524C14.7181 12.3624 14.2893 12.1049 14.0456 11.8191C13.8019 14.0399 12.9643 16.3741 9.23209 16.3741C8.16893 16.3741 7.2999 15.9866 6.61839 15.3449C6.37222 15.4574 5.38176 15.7949 4.04021 15.2574C4.04021 15.2574 3.77917 14.4199 5.03893 12.5074C4.8225 11.7074 4.71511 10.8574 4.71016 10.0074C4.71511 9.15744 4.8225 8.30744 5.03893 7.50744C3.77917 5.60744 4.04021 4.76994 4.04021 4.76994C5.38176 4.23244 6.37222 4.56994 6.61839 4.66994C7.2999 4.03244 8.16893 3.64494 9.23209 3.64494C12.9742 3.64494 13.7978 5.98244 14.0374 8.20744C14.3298 7.85744 14.927 7.53244 15.8399 7.53244C17.1434 7.53244 18.1909 7.54494 18.5073 7.54494C18.7625 7.54494 19.0673 7.36994 18.9699 6.85744C17.6911 2.85661 14.0382 -0.00589051 9.74012 -0.00589032C4.36073 -0.00589008 -0.000946723 4.47161 -0.000946482 9.99411Z" fill="white"/>
</svg>
