<svg width="20" height="20" viewBox="0 0 20 20" fill="none" xmlns="http://www.w3.org/2000/svg">
<path d="M-0.000946646 6.24466L-0.000946318 13.7447C-0.000946167 17.1959 2.7978 19.9947 6.24905 19.9947L13.7491 19.9947C17.2003 19.9947 19.9991 17.1959 19.9991 13.7447L19.9991 6.24466C19.9991 2.79341 17.2003 -0.00534133 13.7491 -0.00534118L6.24905 -0.00534085C2.7978 -0.0053407 -0.000946797 2.79341 -0.000946646 6.24466ZM13.7491 1.86966C16.1616 1.86966 18.1241 3.83216 18.1241 6.24466L18.1241 13.7447C18.1241 16.1572 16.1616 18.1197 13.7491 18.1197L6.24905 18.1197C3.83655 18.1197 1.87405 16.1572 1.87405 13.7447L1.87405 6.24466C1.87405 3.83216 3.83655 1.86966 6.24905 1.86966L13.7491 1.86966Z" fill="white"/>
<path d="M4.99905 9.99466C4.99905 12.7559 7.2378 14.9947 9.99905 14.9947C12.7603 14.9947 14.9991 12.7559 14.9991 9.99466C14.9991 7.23341 12.7603 4.99466 9.99905 4.99466C7.2378 4.99466 4.99905 7.23341 4.99905 9.99466ZM13.1241 9.99466C13.1241 11.7172 11.7216 13.1197 9.99905 13.1197C8.2753 13.1197 6.87405 11.7172 6.87405 9.99466C6.87405 8.27216 8.2753 6.86966 9.99905 6.86966C11.7216 6.86966 13.1241 8.27216 13.1241 9.99466Z" fill="white"/>
<path d="M5.29029 4.61966C5.29029 4.2517 4.992 3.95341 4.62404 3.95341C4.25608 3.95341 3.95779 4.2517 3.95779 4.61966C3.95779 4.98762 4.25608 5.28591 4.62404 5.28591C4.992 5.28591 5.29029 4.98762 5.29029 4.61966Z" fill="white"/>
</svg>
