<svg width="20" height="20" viewBox="0 0 20 20" fill="none" xmlns="http://www.w3.org/2000/svg">
<g clip-path="url(#clip0_121273_2)">
<path d="M2.32641 0.0144358C1.15058 0.18516 0.195967 1.14939 0.0324562 2.33004C-0.00361235 2.58492 -0.00361235 17.3514 0.0300516 17.6327C0.0805476 18.0223 0.236845 18.4406 0.467683 18.7917C0.59753 18.9937 1.00631 19.4025 1.20829 19.5323C1.54974 19.7583 1.96332 19.9146 2.34806 19.9675C2.61015 20.0036 17.4079 20.0036 17.67 19.9675C18.2735 19.8834 18.8362 19.5924 19.2666 19.138C19.6249 18.7605 19.8317 18.3685 19.9687 17.8058C20.0144 17.6087 20.0144 2.37332 19.9687 2.17614C19.8197 1.56057 19.5912 1.1518 19.1728 0.752638C18.8097 0.401571 18.4587 0.204397 17.9465 0.0625272L17.7157 8.36561e-06L10.0932 -0.0023962C5.87315 -0.00480077 2.40577 0.00241293 2.32641 0.0144358ZM17.5954 1.56538C18.0307 1.6784 18.3577 2.01263 18.4466 2.43584C18.4659 2.52721 18.4731 4.67689 18.4731 9.99821C18.4731 18.1473 18.4827 17.5534 18.3336 17.8515C18.199 18.1208 17.8527 18.3733 17.5377 18.431C17.3598 18.4647 2.65825 18.4647 2.48031 18.431C2.04027 18.3493 1.65314 17.9621 1.56898 17.5197C1.53531 17.3418 1.53531 2.64263 1.56898 2.46229C1.60504 2.26752 1.7421 2.01023 1.88397 1.86595C2.02103 1.7313 2.28313 1.58702 2.45867 1.55336C2.51878 1.54134 5.88518 1.53172 10.009 1.52931C16.6649 1.52691 17.468 1.53172 17.5954 1.56538Z" fill="white"/>
<path d="M4.28614 3.1019C4.02644 3.15961 3.74751 3.3135 3.53832 3.5227C2.93236 4.12624 2.93477 5.08086 3.54072 5.68681C4.14186 6.28795 5.08445 6.29517 5.69281 5.70124C5.97895 5.4199 6.12804 5.09288 6.15208 4.68891C6.2146 3.6814 5.28403 2.8903 4.28614 3.1019Z" fill="white"/>
<path d="M3.08386 12.2994V16.9161H4.62279H6.16171V12.2994V7.68259H4.62279H3.08386V12.2994Z" fill="white"/>
<path d="M7.70062 12.2994V16.9161H9.23714H10.7761L10.7857 14.4442C10.7953 11.7559 10.7929 11.7896 10.9348 11.3448C11.0959 10.835 11.4493 10.5152 11.9615 10.4118C12.1924 10.3661 12.6372 10.3661 12.8488 10.4094C13.3706 10.52 13.6712 10.8735 13.801 11.5227C13.8371 11.7151 13.8419 11.9747 13.8491 14.324L13.8587 16.9161H15.3976H16.9366L16.927 14.1557C16.9197 11.7439 16.9125 11.3544 16.8765 11.049C16.7947 10.3541 16.648 9.77216 16.4436 9.32972C16.1863 8.77427 15.7439 8.315 15.2077 8.04568C14.3324 7.60565 12.7719 7.56237 11.9254 7.95431C11.5191 8.14187 11.1416 8.47851 10.9227 8.84641C10.8626 8.94499 10.8073 9.02915 10.7977 9.02915C10.7857 9.02915 10.7785 8.72618 10.7785 8.35587V7.68259H9.23955H7.70062V12.2994Z" fill="white"/>
</g>
<defs>
<clipPath id="clip0_121273_2">
<rect width="20" height="20" fill="white"/>
</clipPath>
</defs>
</svg>
