<svg width="20" height="20" viewBox="0 0 20 20" fill="none" xmlns="http://www.w3.org/2000/svg">
<g clip-path="url(#clip0_121209_3)">
<path d="M0.0144053 17.6736C0.18513 18.8494 1.14936 19.804 2.33 19.9675C2.58489 20.0036 17.3513 20.0036 17.6327 19.9699C18.0222 19.9194 18.4406 19.7631 18.7917 19.5323C18.9937 19.4025 19.4024 18.9937 19.5323 18.7917C19.7583 18.4503 19.9146 18.0367 19.9675 17.6519C20.0036 17.3898 20.0036 2.59212 19.9675 2.33002C19.8834 1.72648 19.5924 1.16381 19.1379 0.733391C18.7604 0.37511 18.3685 0.168318 17.8058 0.0312577C17.6086 -0.0144291 2.37329 -0.0144291 2.17611 0.0312577C1.56054 0.180341 1.15177 0.408774 0.752608 0.827169C0.401541 1.19026 0.204366 1.54133 0.0624966 2.0535L-2.2152e-05 2.28434L-0.00242672 9.90682C-0.00483129 14.1268 0.00238242 17.5942 0.0144053 17.6736ZM1.56535 2.40457C1.67837 1.96934 2.0126 1.64232 2.43581 1.55335C2.52718 1.53411 4.67686 1.5269 9.99817 1.5269C18.1473 1.5269 17.5533 1.51728 17.8515 1.66636C18.1208 1.80102 18.3733 2.14728 18.431 2.46228C18.4647 2.64021 18.4647 17.3417 18.431 17.5197C18.3492 17.9597 17.9621 18.3469 17.5197 18.431C17.3417 18.4647 2.6426 18.4647 2.46226 18.431C2.26749 18.3949 2.0102 18.2579 1.86592 18.116C1.73127 17.979 1.58699 17.7169 1.55333 17.5413C1.54131 17.4812 1.53169 14.1148 1.52928 9.99098C1.52688 3.33513 1.53169 2.53201 1.56535 2.40457Z" fill="white"/>
<path d="M3.10187 15.7139C3.15958 15.9735 3.31347 16.2525 3.52267 16.4617C4.12621 17.0676 5.08083 17.0652 5.68678 16.4593C6.28792 15.8581 6.29514 14.9155 5.70121 14.3072C5.41987 14.021 5.09285 13.872 4.68888 13.8479C3.68137 13.7854 2.89027 14.716 3.10187 15.7139Z" fill="white"/>
<path d="M12.2993 16.9161H16.9161V15.3772V13.8383H12.2993H7.68256V15.3772V16.9161H12.2993Z" fill="white"/>
<path d="M12.2993 12.2994H16.9161V10.7628V9.22392L14.4442 9.2143C11.7559 9.20469 11.7896 9.20709 11.3447 9.06522C10.835 8.90411 10.5151 8.55064 10.4117 8.03847C10.3661 7.80763 10.3661 7.36279 10.4093 7.15118C10.52 6.62939 10.8734 6.32882 11.5227 6.19898C11.715 6.16291 11.9747 6.1581 14.324 6.15088L16.9161 6.14127V4.60234V3.06342L14.1557 3.07304C11.7439 3.08025 11.3543 3.08746 11.049 3.12353C10.354 3.20529 9.77213 3.35197 9.32969 3.55635C8.77424 3.81364 8.31497 4.25608 8.04565 4.7923C7.60562 5.66757 7.56234 7.22813 7.95428 8.07454C8.14184 8.48091 8.47848 8.85843 8.84638 9.07724C8.94496 9.13736 9.02912 9.19266 9.02912 9.20228C9.02912 9.2143 8.72615 9.22152 8.35584 9.22152H7.68256V10.7604V12.2994H12.2993Z" fill="white"/>
</g>
<defs>
<clipPath id="clip0_121209_3">
<rect width="20" height="20" fill="white" transform="matrix(0 -1 1 0 -3.05176e-05 20)"/>
</clipPath>
</defs>
</svg>
